<?xml version="1.0" encoding="iso-8859-1"?>
<!-- Generator: Adobe Illustrator 19.0.0, SVG Export Plug-In . SVG Version: 6.00 Build 0)  -->
<svg version="1.1" id="Layer_1" xmlns="http://www.w3.org/2000/svg" xmlns:xlink="http://www.w3.org/1999/xlink" x="0px" y="0px"
	 viewBox="0 0 213.366 213.366" style="enable-background:new 0 0 213.366 213.366;" xml:space="preserve" fill="black" width="50px">
<g>
	<g>
		<g>
			<path d="M197.526,193.802c-0.155-0.619-15.222-62.306-17.347-82.852c-3.196-30.911-20.675-55.591-44.84-66.567l9.714-22.531
				v-1.57c0-11.185-9.1-20.282-20.284-20.282H86.49C75.303,0,66.203,9.097,66.203,20.282v1.57l10.066,23.346
				C53.015,56.554,36.304,80.79,33.187,110.95c-2.123,20.546-17.195,82.233-17.347,82.852c-0.984,4.025,1.43,8.098,5.435,9.163
				c1.595,0.424,39.61,10.401,85.411,10.401c45.159,0,83.757-9.97,85.378-10.393C196.083,201.921,198.515,197.837,197.526,193.802z
				 M86.49,15.215h38.279c2.374,0,4.37,1.638,4.918,3.842l-8.869,20.574c-4.57-0.943-9.293-1.438-14.134-1.438
				c-5.526,0-10.893,0.659-16.054,1.879l-9.058-21.015C82.122,16.853,84.118,15.215,86.49,15.215z M106.685,198.147
				c-32.377,0-61.284-5.367-74.262-8.192c4.157-17.388,14.109-60.085,15.902-77.44c2.833-27.396,18.334-48.226,39.8-55.877
				L73.849,74.275l11.829,9.574l20.224-24.984l20.221,24.984l11.829-9.574l-14.92-18.43c22.623,6.962,39.083,28.334,42.009,56.671
				c1.796,17.35,11.74,60.024,15.899,77.422C167.861,192.763,138.728,198.147,106.685,198.147z"/>
			<path d="M107.827,123.657c-7.347-0.872-12.97-1.897-12.97-6.346c0-6.186,8.722-6.855,12.473-6.855
				c5.567,0,11.507,2.615,13.523,5.955l0.586,0.976l11.545-5.344l-0.571-1.164c-4.306-8.793-12.014-11.337-17.852-12.361v-7.71
				h-13.513v7.677c-12.582,1.856-20.051,8.839-20.051,18.829c0,16.292,14.788,17.946,25.58,19.151
				c9.615,1.139,14.091,3.513,14.091,7.472c0,7.565-10.472,8.154-13.68,8.154c-7.144,0-14.038-3.568-16.034-8.301l-0.495-1.172
				l-12.539,5.318l0.5,1.169c3.716,8.694,11.725,14.139,22.63,15.423v8.336h13.513v-8.755c10.386-1.162,20.487-7.718,20.487-20.17
				C135.048,127.022,119.316,125.079,107.827,123.657z"/>
		</g>
	</g>
</g>
<g>
</g>
<g>
</g>
<g>
</g>
<g>
</g>
<g>
</g>
<g>
</g>
<g>
</g>
<g>
</g>
<g>
</g>
<g>
</g>
<g>
</g>
<g>
</g>
<g>
</g>
<g>
</g>
<g>
</g>
</svg>
